<svg width="24" height="24" viewBox="0 0 24 24" fill="none" xmlns="http://www.w3.org/2000/svg">
<path d="M10.0386 21.5L8.33865 18.5H5.03865L3.07715 15L4.77715 12L3.07715 9L5.03865 5.5H8.33865L10.0386 2.5H13.9616L15.6616 5.5H18.9616L20.9231 9L19.2231 12L20.9231 15L18.9616 18.5H15.6616L13.9616 21.5H10.0386ZM15.6616 11.5H18.3886L19.7771 9L18.3886 6.5H15.6616L14.2481 9L15.6616 11.5ZM10.6616 14.5H13.3386L14.7521 12L13.3386 9.5H10.6616L9.24815 12L10.6616 14.5ZM10.6616 8.5H13.3386L14.7771 5.975L13.3636 3.5H10.6366L9.22315 5.975L10.6616 8.5ZM5.63665 11.5H8.33865L9.75215 9L8.33865 6.5H5.63665L4.22315 9L5.63665 11.5ZM5.63665 17.5H8.33865L9.75215 15L8.33865 12.5H5.61165L4.22315 15L5.63665 17.5ZM10.6366 20.5H13.3636L14.7771 18.025L13.3386 15.5H10.6616L9.22315 18.025L10.6366 20.5ZM15.6616 17.5H18.3636L19.7771 15L18.3636 12.5H15.6616L14.2481 15L15.6616 17.5Z" fill="black"/>
</svg>
